<svg width="16" height="12" viewBox="0 0 16 12" fill="none" xmlns="http://www.w3.org/2000/svg">
<mask id="mask0_49_4" style="mask-type:alpha" maskUnits="userSpaceOnUse" x="0" y="0" width="16" height="12">
<rect y="0.5" width="16" height="11" fill="#D9D9D9"/>
</mask>
<g mask="url(#mask0_49_4)">
<path d="M7.34305 6L11.1906 9.84753C11.3714 10.0284 11.4619 10.2586 11.4619 10.5381C11.4619 10.8176 11.3714 11.0478 11.1906 11.2287C11.0097 11.4096 10.7795 11.5 10.5 11.5C10.2205 11.5 9.99028 11.4096 9.80942 11.2287L5.2713 6.69058C5.17265 6.59193 5.10277 6.48505 5.06166 6.36996C5.02055 6.25486 5 6.13154 5 6C5 5.86846 5.02055 5.74514 5.06166 5.63004C5.10277 5.51495 5.17265 5.40807 5.2713 5.30942L9.80942 0.7713C9.99028 0.590433 10.2205 0.5 10.5 0.5C10.7795 0.5 11.0097 0.590433 11.1906 0.7713C11.3714 0.952167 11.4619 1.18236 11.4619 1.46188C11.4619 1.74141 11.3714 1.9716 11.1906 2.15247L7.34305 6Z" fill="#1C1B1F"/>
</g>
</svg>
