<svg width="32" height="32" viewBox="0 0 32 32" fill="none" xmlns="http://www.w3.org/2000/svg">
<g id="favorite">
<mask id="mask0_1_44" style="mask-type:alpha" maskUnits="userSpaceOnUse" x="0" y="0" width="32" height="32">
<rect id="Bounding box" width="32" height="32" fill="#D9D9D9"/>
</mask>
<g mask="url(#mask0_1_44)">
<path id="favorite_2" d="M16 22.3725C15.8367 22.3725 15.6704 22.3433 15.5013 22.285C15.3321 22.2267 15.1833 22.1333 15.055 22.005L13.8475 20.9025C12.6108 19.7708 11.4938 18.6479 10.4963 17.5338C9.49875 16.4196 9 15.1917 9 13.85C9 12.7533 9.3675 11.8375 10.1025 11.1025C10.8375 10.3675 11.7533 10 12.85 10C13.4683 10 14.0517 10.1313 14.6 10.3938C15.1483 10.6563 15.615 11.015 16 11.47C16.385 11.015 16.8517 10.6563 17.4 10.3938C17.9483 10.1313 18.5317 10 19.15 10C20.2467 10 21.1625 10.3675 21.8975 11.1025C22.6325 11.8375 23 12.7533 23 13.85C23 15.1917 22.5042 16.4225 21.5125 17.5425C20.5208 18.6625 19.395 19.7883 18.135 20.92L16.945 22.005C16.8167 22.1333 16.6679 22.2267 16.4988 22.285C16.3296 22.3433 16.1633 22.3725 16 22.3725ZM15.335 12.87C14.9967 12.3917 14.635 12.0271 14.25 11.7763C13.865 11.5254 13.3983 11.4 12.85 11.4C12.15 11.4 11.5667 11.6333 11.1 12.1C10.6333 12.5667 10.4 13.15 10.4 13.85C10.4 14.4567 10.6158 15.1013 11.0475 15.7838C11.4792 16.4663 11.9954 17.1283 12.5963 17.77C13.1971 18.4117 13.8154 19.0125 14.4513 19.5725C15.0871 20.1325 15.6033 20.5933 16 20.955C16.3967 20.5933 16.9129 20.1325 17.5487 19.5725C18.1846 19.0125 18.8029 18.4117 19.4038 17.77C20.0046 17.1283 20.5208 16.4663 20.9525 15.7838C21.3842 15.1013 21.6 14.4567 21.6 13.85C21.6 13.15 21.3667 12.5667 20.9 12.1C20.4333 11.6333 19.85 11.4 19.15 11.4C18.6017 11.4 18.135 11.5254 17.75 11.7763C17.365 12.0271 17.0033 12.3917 16.665 12.87C16.5833 12.9867 16.4842 13.0742 16.3675 13.1325C16.2508 13.1908 16.1283 13.22 16 13.22C15.8717 13.22 15.7492 13.1908 15.6325 13.1325C15.5158 13.0742 15.4167 12.9867 15.335 12.87Z" fill="#1C1B1F"/>
</g>
</g>
</svg>
