<svg width="40" height="40" viewBox="0 0 40 40" fill="none" xmlns="http://www.w3.org/2000/svg">
<g filter="url(#filter0_d_4_86)">
<rect x="35" y="31" width="30" height="30" rx="15" transform="rotate(-180 35 31)" fill="white" shape-rendering="crispEdges"/>
<mask id="mask0_4_86" style="mask-type:alpha" maskUnits="userSpaceOnUse" x="14" y="10" width="12" height="12">
<rect x="26" y="22" width="12" height="12" transform="rotate(-180 26 22)" fill="#D9D9D9"/>
</mask>
<g mask="url(#mask0_4_86)">
<path d="M20.0086 15.9128L24.1766 19.7604C24.3725 19.9412 24.4705 20.1714 24.4705 20.451C24.4705 20.7305 24.3725 20.9607 24.1766 21.1415C23.9806 21.3224 23.7313 21.4128 23.4285 21.4128C23.1257 21.4128 22.8763 21.3224 22.6804 21.1415L17.7644 16.6034C17.6575 16.5048 17.5818 16.3979 17.5373 16.2828C17.4927 16.1677 17.4705 16.0444 17.4705 15.9128C17.4705 15.7813 17.4927 15.658 17.5373 15.5429C17.5818 15.4278 17.6575 15.3209 17.7644 15.2223L22.6804 10.6841C22.8763 10.5033 23.1257 10.4128 23.4285 10.4128C23.7313 10.4128 23.9806 10.5033 24.1766 10.6841C24.3725 10.865 24.4705 11.0952 24.4705 11.3747C24.4705 11.6542 24.3725 11.8844 24.1766 12.0653L20.0086 15.9128Z" fill="black"/>
</g>
</g>
<defs>
<filter id="filter0_d_4_86" x="0" y="0" width="40" height="40" filterUnits="userSpaceOnUse" color-interpolation-filters="sRGB">
<feFlood flood-opacity="0" result="BackgroundImageFix"/>
<feColorMatrix in="SourceAlpha" type="matrix" values="0 0 0 0 0 0 0 0 0 0 0 0 0 0 0 0 0 0 127 0" result="hardAlpha"/>
<feOffset dy="4"/>
<feGaussianBlur stdDeviation="2.5"/>
<feComposite in2="hardAlpha" operator="out"/>
<feColorMatrix type="matrix" values="0 0 0 0 0 0 0 0 0 0 0 0 0 0 0 0 0 0 0.25 0"/>
<feBlend mode="normal" in2="BackgroundImageFix" result="effect1_dropShadow_4_86"/>
<feBlend mode="normal" in="SourceGraphic" in2="effect1_dropShadow_4_86" result="shape"/>
</filter>
</defs>
</svg>
