<svg width="32" height="32" viewBox="0 0 32 32" fill="none" xmlns="http://www.w3.org/2000/svg">
<g id="drag_handle">
<mask id="mask0_1_32" style="mask-type:alpha" maskUnits="userSpaceOnUse" x="0" y="0" width="32" height="32">
<rect id="Bounding box" width="32" height="32" fill="#D9D9D9"/>
</mask>
<g mask="url(#mask0_1_32)">
<path id="drag_handle_2" d="M11.6875 19C11.4927 19 11.3294 18.9042 11.1977 18.7125C11.0659 18.5208 11 18.2833 11 18C11 17.7167 11.0659 17.4792 11.1977 17.2875C11.3294 17.0958 11.4927 17 11.6875 17H21.3125C21.5073 17 21.6706 17.0958 21.8023 17.2875C21.9341 17.4792 22 17.7167 22 18C22 18.2833 21.9341 18.5208 21.8023 18.7125C21.6706 18.9042 21.5073 19 21.3125 19H11.6875ZM11.6875 15C11.4927 15 11.3294 14.9042 11.1977 14.7125C11.0659 14.5208 11 14.2833 11 14C11 13.7167 11.0659 13.4792 11.1977 13.2875C11.3294 13.0958 11.4927 13 11.6875 13H21.3125C21.5073 13 21.6706 13.0958 21.8023 13.2875C21.9341 13.4792 22 13.7167 22 14C22 14.2833 21.9341 14.5208 21.8023 14.7125C21.6706 14.9042 21.5073 15 21.3125 15H11.6875Z" fill="#1C1B1F"/>
</g>
</g>
</svg>
