<svg width="120" height="22" viewBox="0 0 120 22" fill="none" xmlns="http://www.w3.org/2000/svg">
<g id="patagonia 1" clip-path="url(#clip0_4_27)">
<path id="Vector" d="M36.8518 14.7313C36.8518 14.5374 36.6552 14.6344 36.6552 14.6344C36.3603 14.8282 36.262 14.8282 35.8688 14.8282C35.4756 14.8282 34.7876 14.6344 34.7876 13.859V6.39648C34.7876 6.39648 34.7876 6.29956 34.8859 6.29956H36.6552C36.6552 6.29956 36.7535 6.39648 36.7535 6.20264C36.7535 6.00881 37.1466 4.36123 37.1466 4.36123C37.1466 4.36123 37.1466 4.26432 37.0483 4.26432H34.7876C34.7876 4.26432 34.6893 4.26432 34.6893 4.1674V3.19824C34.6893 2.61674 34.6893 1.84141 34.8859 1.25991C34.8859 1.25991 34.9842 1.163 34.7876 1.163C34.591 1.163 33.5098 0.969163 33.4115 0.969163C33.3132 0.969163 33.2149 1.06608 33.2149 1.06608C32.3302 2.90749 30.5609 4.26432 28.4968 4.84581C28.4968 4.84581 28.3985 4.84581 28.3985 4.94273V6.10573C28.3985 6.29956 28.4968 6.20264 28.4968 6.20264H29.6763C29.7746 6.20264 29.7746 6.29956 29.7746 6.29956V13.9559C29.7746 16.185 30.7575 17.4449 33.2149 17.4449C35.4756 17.4449 35.5739 17.348 37.3432 16.185C37.3432 16.185 37.4415 16.185 37.4415 15.9912C37.3432 15.9912 36.8518 14.9251 36.8518 14.7313ZM9.32943 3.87665C8.1499 3.87665 7.26526 4.36123 6.08573 5.13656C6.08573 5.13656 5.98744 5.23348 5.98744 5.03965V4.07048C5.88914 3.87665 5.79085 3.97357 5.79085 3.97357L0.0897949 5.42731C0.0897949 5.42731 -0.00849915 5.42731 -0.00849915 5.52423V6.88106C-0.00849915 7.07489 0.0897949 6.97797 0.0897949 6.97797L0.777853 6.78414C0.777853 6.78414 0.974441 6.78414 0.974441 6.88106V19.3833C0.974441 19.3833 0.974441 19.5771 0.777853 19.5771H0.188089C0.188089 19.5771 -0.00849915 19.5771 -0.00849915 19.7709V21.0308C-0.00849915 21.2247 0.188089 21.2247 0.188089 21.2247H7.56014C7.56014 21.2247 7.65843 21.2247 7.65843 21.0308V19.7709C7.65843 19.5771 7.46185 19.5771 7.46185 19.5771H6.08573C5.88914 19.5771 5.88914 19.3833 5.88914 19.3833V17.1542C5.88914 17.0573 5.98744 17.0573 5.98744 17.0573C6.67549 17.4449 7.75673 17.5418 8.54308 17.5418C12.5731 17.5418 14.9322 13.859 14.9322 10.1762C14.9322 6.39648 12.4748 3.87665 9.32943 3.87665ZM7.65843 15.5066C6.28232 15.5066 5.88914 14.5374 5.88914 13.3744V6.97797C5.88914 6.78414 6.08573 6.78414 6.08573 6.78414L6.77379 6.68722C7.65843 6.68722 10.0175 6.88106 10.0175 11.63C9.9192 14.5374 9.23114 15.5066 7.65843 15.5066ZM99.7599 3.87665C101.136 3.87665 103.299 3.29515 103.299 1.64758C103.299 0.290749 102.021 0 100.841 0C99.6616 0 97.8923 0.969163 97.8923 2.22907C97.8923 3.29515 98.6787 3.87665 99.7599 3.87665Z" fill="black"/>
<path id="Vector_2" d="M28.7917 15.6035H28.2019C28.1036 15.6035 28.1036 15.3128 28.1036 15.4097V8.23789C28.1036 5.13657 26.0394 3.87666 22.9923 3.87666C21.9111 3.87666 20.9281 4.07049 19.8469 4.45816C19.8469 4.45816 19.6503 4.55507 19.7486 4.26432C19.8469 4.16741 19.8469 3.97357 19.8469 3.97357C19.8469 3.97357 19.9452 3.87666 19.7486 3.77974C19.552 3.68283 18.5691 3.39208 18.3725 3.29516C18.2742 3.29516 18.2742 3.39208 18.2742 3.39208C18.2742 3.39208 16.7015 7.26873 16.6032 7.36564C16.5049 7.55948 16.6032 7.55948 16.6032 7.55948C16.6032 7.55948 17.881 8.04406 18.0776 8.04406C18.1759 8.14098 18.2742 8.04406 18.2742 8.04406C18.9622 7.17181 19.7486 6.59031 21.223 6.59031C22.4025 6.59031 22.9923 7.0749 22.9923 8.14097V8.72247L19.2571 8.81939C16.7998 8.81939 14.8339 10.5639 14.8339 13.5683C14.8339 15.9912 16.7015 17.5419 19.1588 17.5419C20.6332 17.5419 21.8128 16.9604 22.7957 16.0881C22.7957 16.0881 22.9923 15.7974 22.9923 16.0881C22.9923 16.3789 23.0906 16.6696 23.1889 17.0573C23.1889 17.2511 23.2872 17.1542 23.2872 17.1542H28.4968C28.4968 17.1542 28.6934 17.2511 28.6934 17.0573V15.7974C28.9882 15.7004 28.9882 15.6035 28.7917 15.6035ZM23.0906 12.8899C23.0906 13.859 22.894 14.8282 21.6162 14.8282C20.2401 14.8282 19.9452 13.6652 19.9452 12.696C19.9452 11.3392 20.9281 10.467 22.3042 10.467H22.9923C23.1889 10.467 23.0906 10.5639 23.0906 10.5639V12.8899ZM119.517 1.7445C119.124 1.45375 118.731 1.25992 118.239 1.25992C117.748 1.25992 117.355 1.45375 117.06 1.7445C116.765 2.03525 116.568 2.51983 116.568 2.9075C116.568 3.39208 116.765 3.77974 117.06 4.16741C117.355 4.55507 117.846 4.65199 118.239 4.65199C118.731 4.65199 119.124 4.45816 119.517 4.16741C119.812 3.77974 120.009 3.39208 120.009 2.9075C120.009 2.42291 119.91 2.03525 119.517 1.7445ZM119.419 3.97357C119.124 4.26432 118.731 4.45816 118.338 4.45816C117.944 4.45816 117.551 4.26432 117.256 3.97357C116.961 3.68283 116.863 3.29516 116.863 2.9075C116.863 2.51983 116.961 2.13216 117.256 1.84142C117.551 1.55067 117.944 1.45375 118.338 1.35683C118.731 1.35683 119.124 1.55067 119.419 1.84142C119.714 2.13216 119.812 2.51983 119.812 2.9075C119.812 3.39208 119.714 3.68283 119.419 3.97357ZM51.301 15.5066H50.7112C50.6129 15.5066 50.6129 15.3128 50.6129 15.3128V8.23789C50.6129 5.13657 48.5488 3.87666 45.5016 3.87666C44.4204 3.87666 43.4375 4.07049 42.3562 4.45816C42.3562 4.45816 42.1596 4.55507 42.2579 4.26432C42.3562 4.16741 42.3562 3.97357 42.3562 3.97357C42.3562 3.97357 42.4545 3.87666 42.2579 3.77974C42.0613 3.68283 41.0784 3.39208 40.8818 3.29516C40.7835 3.29516 40.7835 3.39208 40.7835 3.39208C40.7835 3.39208 39.2108 7.17181 39.1125 7.36564C39.0142 7.55948 39.1125 7.55948 39.1125 7.55948C39.1125 7.55948 40.3903 8.04406 40.5869 8.04406C40.6852 8.14098 40.7835 8.04406 40.7835 8.04406C41.4716 7.17181 42.2579 6.59031 43.7323 6.59031C44.9119 6.59031 45.5016 7.0749 45.5016 8.14097V8.72247L41.7665 8.81939C39.3091 8.81939 37.3432 10.5639 37.3432 13.5683C37.3432 15.9912 39.2108 17.5419 41.6682 17.5419C43.1426 17.5419 44.3221 16.9604 45.305 16.0881C45.305 16.0881 45.5016 15.7974 45.5016 16.0881C45.5016 16.3789 45.5999 16.6696 45.6982 17.0573C45.6982 17.2511 45.7965 17.1542 45.7965 17.1542H51.0061C51.0061 17.1542 51.2027 17.2511 51.2027 17.0573V15.7974C51.4976 15.7004 51.4976 15.5066 51.301 15.5066ZM45.5999 10.467V12.8899C45.5999 13.859 45.4033 14.8282 44.1255 14.8282C42.7494 14.8282 42.4545 13.6652 42.4545 12.696C42.4545 11.3392 43.4375 10.467 44.8136 10.467H45.5016C45.5999 10.37 45.5999 10.467 45.5999 10.467ZM117.846 15.5066H117.256C117.158 15.5066 117.158 15.3128 117.158 15.3128V8.23789C117.158 5.13657 115.094 3.87666 112.047 3.87666C110.965 3.87666 109.983 4.07049 108.901 4.45816C108.901 4.45816 108.705 4.55507 108.803 4.26432C108.901 4.16741 108.901 3.97357 108.901 3.97357C108.901 3.97357 109 3.87666 108.803 3.77974C108.606 3.68283 107.623 3.39208 107.427 3.29516C107.329 3.29516 107.329 3.39208 107.329 3.39208C107.329 3.39208 105.756 7.17181 105.658 7.36564C105.559 7.55948 105.658 7.55948 105.658 7.55948C105.658 7.55948 106.935 8.04406 107.132 8.04406C107.23 8.14098 107.329 8.04406 107.329 8.04406C108.017 7.17181 108.803 6.59031 110.277 6.59031C111.457 6.59031 112.047 7.0749 112.047 8.14097V8.72247L108.312 8.81939C105.854 8.81939 103.888 10.5639 103.888 13.5683C103.888 15.9912 105.756 17.5419 108.213 17.5419C109.688 17.5419 110.867 16.9604 111.85 16.0881C111.85 16.0881 112.047 15.7974 112.047 16.0881C112.047 16.3789 112.145 16.6696 112.243 17.0573C112.243 17.2511 112.342 17.1542 112.342 17.1542H117.551C117.551 17.1542 117.748 17.2511 117.748 17.0573V15.7974C118.043 15.7004 118.043 15.5066 117.846 15.5066ZM112.145 10.467V12.8899C112.145 13.859 111.948 14.8282 110.671 14.8282C109.294 14.8282 109 13.6652 109 12.696C109 11.3392 109.983 10.467 111.359 10.467H112.047C112.145 10.37 112.145 10.467 112.145 10.467Z" fill="black"/>
<path id="Vector_3" d="M119.124 2.51982C119.124 2.32599 119.026 2.13216 118.829 2.03524C118.731 2.03524 118.534 1.93832 118.338 1.93832H117.649V3.87665H117.944V3.10132H118.239C118.436 3.10132 118.534 3.10132 118.632 3.19824C118.731 3.29515 118.829 3.39207 118.829 3.5859V3.87665H119.124V3.48898C119.124 3.39207 119.124 3.29515 119.026 3.19824C118.927 3.10132 118.829 3.0044 118.731 3.0044C118.829 3.0044 118.927 3.0044 119.026 2.90749C119.026 2.81057 119.124 2.71365 119.124 2.51982ZM118.534 2.81057H117.944V2.22907H118.239C118.436 2.22907 118.534 2.22907 118.632 2.32599C118.731 2.32599 118.731 2.42291 118.731 2.61674C118.731 2.71365 118.731 2.81057 118.534 2.81057ZM103.987 15.7004C103.987 15.5066 103.888 15.6035 103.888 15.6035H103.2C103.004 15.6035 103.102 15.5066 103.102 15.5066V4.07048C103.102 3.87665 103.004 3.97357 103.004 3.97357L97.3026 5.52423C97.3026 5.52423 97.2043 5.52423 97.2043 5.62114V6.88106C97.2043 7.07489 97.4009 6.97797 97.4009 6.97797C97.4009 6.97797 97.7941 6.88106 98.0889 6.88106C98.2855 6.88106 98.1872 6.97797 98.1872 7.07489V15.4097C98.1872 15.4097 98.1872 15.5066 98.0889 15.5066H97.3026C97.3026 15.5066 97.2043 15.5066 97.2043 15.6035V16.9604C97.2043 17.1542 97.3026 17.0573 97.3026 17.0573H103.987C104.183 17.0573 104.085 16.9604 104.085 16.9604V15.7004H103.987ZM96.1231 15.6035H95.3367C95.2384 15.6035 95.2384 15.5066 95.2384 15.5066V7.7533C95.2384 6.29956 94.7469 4.07048 91.3067 4.07048C89.4391 4.07048 88.1612 5.03965 86.7851 6.10573C86.7851 6.10573 86.6868 6.29956 86.6868 6.10573V4.07048C86.5885 3.87665 86.4902 3.97357 86.4902 3.97357L80.6909 5.52423C80.6909 5.52423 80.5926 5.52423 80.5926 5.62114V6.97797C80.5926 7.07489 80.6909 7.07489 80.6909 7.07489C80.6909 7.07489 81.1824 6.97797 81.379 6.88106C81.6738 6.78414 81.5755 6.88106 81.5755 6.88106V15.4097C81.5755 15.4097 81.5755 15.5066 81.4772 15.5066H80.6909C80.6909 15.5066 80.5926 15.4097 80.5926 15.6035V16.9604C80.5926 17.1542 80.6909 17.0573 80.6909 17.0573H87.4732C87.4732 17.0573 87.5715 17.0573 87.5715 16.9604V15.6035C87.6698 15.5066 87.4732 15.5066 87.4732 15.5066H86.6868C86.5885 15.5066 86.5885 15.4097 86.5885 15.4097V8.23788C86.5885 8.14097 86.6868 8.04405 86.6868 8.04405C87.2766 7.55947 87.9647 7.07489 88.8493 7.07489C89.5374 7.07489 90.3237 7.46255 90.3237 8.23788V15.5066C90.3237 15.5066 90.3237 15.6035 90.2254 15.6035H89.4391C89.4391 15.6035 89.3408 15.6035 89.3408 15.7004V17.0573C89.3408 17.1542 89.4391 17.1542 89.4391 17.1542H96.1231C96.1231 17.1542 96.2214 17.1542 96.3196 17.0573V15.7004C96.2214 15.5066 96.1231 15.6035 96.1231 15.6035ZM64.7673 9.11013C64.7673 6.00881 62.2116 5.23348 62.2116 4.7489C62.2116 4.45815 62.4082 4.1674 62.7031 4.1674C63.2929 4.1674 63.2929 4.1674 63.5877 4.36123C63.5877 4.36123 63.686 4.45815 63.686 4.36123C63.686 4.26432 64.1775 2.32599 64.1775 2.22907C64.2758 1.93832 64.0792 1.93832 64.0792 1.93832H63.1946C61.7202 1.93832 61.2287 2.32599 60.9338 3.29515C60.9338 3.29515 60.7372 3.97357 60.6389 4.1674C60.6389 4.36123 60.4423 4.26432 60.4423 4.26432C59.7543 4.1674 58.9679 3.87665 57.5918 3.87665C54.643 3.87665 51.4976 5.52423 51.4976 9.20705C51.4976 11.8238 53.66 13.3744 56.0191 13.7621C56.0191 13.7621 56.4123 13.7621 56.0191 13.9559C55.331 14.1498 53.9549 15.022 52.2839 15.2159C52.2839 15.2159 52.0873 15.2159 52.1856 15.4097C52.1856 15.5066 52.6771 16.6696 52.7754 16.7665C52.7754 16.8634 52.972 16.8634 52.972 16.8634C53.7583 16.6696 55.9208 16.8634 56.314 16.9604C56.6089 16.9604 56.314 17.0573 56.314 17.0573C55.2327 17.2511 53.8566 18.0264 53.8566 19.2863C53.8566 21.4185 56.314 21.9031 58.673 21.9031C60.344 21.9031 64.2758 21.2247 64.2758 18.4141C64.2758 15.6035 59.8526 15.022 57.5918 14.8282C57.1986 14.8282 57.5918 14.7313 57.5918 14.7313C60.9338 13.9559 64.7673 13.0837 64.7673 9.11013ZM58.0833 17.7357C58.1816 17.6388 58.2799 17.6388 58.2799 17.6388C59.1645 18.1233 59.8526 18.6079 59.8526 19.7709C59.8526 20.4493 59.4594 20.7401 58.7713 20.7401C57.985 20.7401 57.6901 20.0617 57.6901 19.3833C57.6901 18.8018 57.8867 17.9295 58.0833 17.7357ZM56.0191 7.26872C56.0191 6.00881 56.4123 5.52423 57.3952 5.52423C59.4594 5.52423 60.2457 9.4978 60.2457 10.8546C60.2457 12.1145 59.8526 12.5991 58.8696 12.5991C56.8055 12.696 56.0191 8.72246 56.0191 7.26872Z" fill="black"/>
<path id="Vector_4" d="M72.9257 3.87665C68.6007 3.87665 65.2587 6.49339 65.2587 10.6608C65.2587 14.9251 68.6007 17.4449 72.9257 17.4449C77.2506 17.4449 80.6909 14.8282 80.6909 10.6608C80.6909 6.49339 77.3489 3.87665 72.9257 3.87665ZM73.8103 15.5066C71.0581 15.5066 70.2717 10.7577 70.2717 8.81938C70.2717 7.85022 70.2717 5.91189 72.1393 5.91189C74.8915 5.91189 75.6779 10.6608 75.6779 12.5991C75.6779 13.9559 75.2847 15.5066 73.8103 15.5066Z" fill="black"/>
</g>
<defs>
<clipPath id="clip0_4_27">
<rect width="120.017" height="22" fill="white" transform="translate(-0.00849915)"/>
</clipPath>
</defs>
</svg>
