<svg width="40" height="40" viewBox="0 0 40 40" fill="none" xmlns="http://www.w3.org/2000/svg">
<g filter="url(#filter0_d_4_88)">
<rect x="5" y="1" width="30" height="30" rx="15" fill="white" shape-rendering="crispEdges"/>
<mask id="mask0_4_88" style="mask-type:alpha" maskUnits="userSpaceOnUse" x="14" y="10" width="12" height="12">
<rect x="14" y="10" width="12" height="12" fill="#D9D9D9"/>
</mask>
<g mask="url(#mask0_4_88)">
<path d="M19.9914 16.0872L15.8234 12.2396C15.6275 12.0588 15.5295 11.8286 15.5295 11.549C15.5295 11.2695 15.6275 11.0393 15.8234 10.8585C16.0194 10.6776 16.2687 10.5872 16.5715 10.5872C16.8743 10.5872 17.1237 10.6776 17.3196 10.8585L22.2356 15.3966C22.3425 15.4952 22.4182 15.6021 22.4627 15.7172C22.5073 15.8323 22.5295 15.9556 22.5295 16.0872C22.5295 16.2187 22.5073 16.342 22.4627 16.4571C22.4182 16.5722 22.3425 16.6791 22.2356 16.7777L17.3196 21.3159C17.1237 21.4967 16.8743 21.5872 16.5715 21.5872C16.2687 21.5872 16.0194 21.4967 15.8234 21.3159C15.6275 21.135 15.5295 20.9048 15.5295 20.6253C15.5295 20.3458 15.6275 20.1156 15.8234 19.9347L19.9914 16.0872Z" fill="black"/>
</g>
</g>
<defs>
<filter id="filter0_d_4_88" x="0" y="0" width="40" height="40" filterUnits="userSpaceOnUse" color-interpolation-filters="sRGB">
<feFlood flood-opacity="0" result="BackgroundImageFix"/>
<feColorMatrix in="SourceAlpha" type="matrix" values="0 0 0 0 0 0 0 0 0 0 0 0 0 0 0 0 0 0 127 0" result="hardAlpha"/>
<feOffset dy="4"/>
<feGaussianBlur stdDeviation="2.5"/>
<feComposite in2="hardAlpha" operator="out"/>
<feColorMatrix type="matrix" values="0 0 0 0 0 0 0 0 0 0 0 0 0 0 0 0 0 0 0.25 0"/>
<feBlend mode="normal" in2="BackgroundImageFix" result="effect1_dropShadow_4_88"/>
<feBlend mode="normal" in="SourceGraphic" in2="effect1_dropShadow_4_88" result="shape"/>
</filter>
</defs>
</svg>
