<svg width="32" height="32" viewBox="0 0 32 32" fill="none" xmlns="http://www.w3.org/2000/svg">
<g id="search">
<mask id="mask0_1_50" style="mask-type:alpha" maskUnits="userSpaceOnUse" x="0" y="0" width="32" height="32">
<rect id="Bounding box" width="32" height="32" fill="#D9D9D9"/>
</mask>
<g mask="url(#mask0_1_50)">
<path id="search_2" d="M13.9175 19.835C12.2636 19.835 10.8639 19.2622 9.71835 18.1166C8.57278 16.9711 8 15.5714 8 13.9175C8 12.2636 8.57278 10.8639 9.71835 9.71835C10.8639 8.57278 12.2636 8 13.9175 8C15.5714 8 16.9711 8.57278 18.1166 9.71835C19.2622 10.8639 19.835 12.2636 19.835 13.9175C19.835 14.5851 19.7288 15.2148 19.5164 15.8065C19.3039 16.3983 19.0156 16.9218 18.6515 17.377L23.7496 22.4751C23.9165 22.642 24 22.8544 24 23.1124C24 23.3703 23.9165 23.5827 23.7496 23.7496C23.5827 23.9165 23.3703 24 23.1124 24C22.8544 24 22.642 23.9165 22.4751 23.7496L17.377 18.6515C16.9218 19.0156 16.3983 19.3039 15.8065 19.5164C15.2148 19.7288 14.5851 19.835 13.9175 19.835ZM13.9175 18.0142C15.0555 18.0142 16.0228 17.6159 16.8193 16.8193C17.6159 16.0228 18.0142 15.0555 18.0142 13.9175C18.0142 12.7795 17.6159 11.8122 16.8193 11.0156C16.0228 10.2191 15.0555 9.82077 13.9175 9.82077C12.7795 9.82077 11.8122 10.2191 11.0156 11.0156C10.2191 11.8122 9.82077 12.7795 9.82077 13.9175C9.82077 15.0555 10.2191 16.0228 11.0156 16.8193C11.8122 17.6159 12.7795 18.0142 13.9175 18.0142Z" fill="#1C1B1F"/>
</g>
</g>
</svg>
