<svg width="32" height="32" viewBox="0 0 32 32" fill="none" xmlns="http://www.w3.org/2000/svg">
<g id="shopping_bag">
<mask id="mask0_1_56" style="mask-type:alpha" maskUnits="userSpaceOnUse" x="0" y="0" width="32" height="32">
<rect id="Bounding box" width="32" height="32" fill="#D9D9D9"/>
</mask>
<g mask="url(#mask0_1_56)">
<path id="shopping_bag_2" d="M10 24C9.45 24 8.97917 23.8433 8.5875 23.53C8.19583 23.2167 8 22.84 8 22.4V12.8C8 12.36 8.19583 11.9833 8.5875 11.67C8.97917 11.3567 9.45 11.2 10 11.2H12C12 10.32 12.3917 9.56667 13.175 8.94C13.9583 8.31333 14.9 8 16 8C17.1 8 18.0417 8.31333 18.825 8.94C19.6083 9.56667 20 10.32 20 11.2H22C22.55 11.2 23.0208 11.3567 23.4125 11.67C23.8042 11.9833 24 12.36 24 12.8V22.4C24 22.84 23.8042 23.2167 23.4125 23.53C23.0208 23.8433 22.55 24 22 24H10ZM10 22.4H22V12.8H20V14.4C20 14.6267 19.9042 14.8167 19.7125 14.97C19.5208 15.1233 19.2833 15.2 19 15.2C18.7167 15.2 18.4792 15.1233 18.2875 14.97C18.0958 14.8167 18 14.6267 18 14.4V12.8H14V14.4C14 14.6267 13.9042 14.8167 13.7125 14.97C13.5208 15.1233 13.5 15.2 13 15.2C12.5 15.2 12.4792 15.1233 12.2875 14.97C12.0958 14.8167 12 14.6267 12 14.4V12.8H10V22.4ZM14 11.2H18C18 10.76 17.8042 10.3833 17.4125 10.07C17.0208 9.75667 16.55 9.6 16 9.6C15.45 9.6 14.9792 9.75667 14.5875 10.07C14.1958 10.3833 14 10.76 14 11.2Z" fill="#1C1B1F"/>
</g>
</g>
</svg>
