<svg width="14" height="14" viewBox="0 0 14 14" fill="none" xmlns="http://www.w3.org/2000/svg">
<mask id="mask0_81_45" style="mask-type:alpha" maskUnits="userSpaceOnUse" x="0" y="0" width="14" height="14">
<rect width="14" height="14" fill="#D9D9D9"/>
</mask>
<g mask="url(#mask0_81_45)">
<path d="M7 11.2013L3.60692 13.2453C3.45702 13.3407 3.30031 13.3815 3.13679 13.3679C2.97327 13.3543 2.83019 13.2998 2.70755 13.2044C2.58491 13.109 2.48952 12.9898 2.42138 12.8467C2.35325 12.7036 2.33962 12.5435 2.3805 12.3664L3.27987 8.50314L0.275157 5.90723C0.138889 5.78459 0.0537212 5.64492 0.0196541 5.48821C-0.014413 5.3315 -0.00419287 5.1782 0.0503145 5.0283C0.104822 4.87841 0.186583 4.75576 0.295597 4.66038C0.404612 4.56499 0.554507 4.50367 0.745283 4.47641L4.71069 4.12893L6.24371 0.490566C6.31184 0.327044 6.41745 0.204402 6.56053 0.122641C6.70362 0.0408805 6.8501 0 7 0C7.1499 0 7.29638 0.0408805 7.43947 0.122641C7.58255 0.204402 7.68816 0.327044 7.75629 0.490566L9.28931 4.12893L13.2547 4.47641C13.4455 4.50367 13.5954 4.56499 13.7044 4.66038C13.8134 4.75576 13.8952 4.87841 13.9497 5.0283C14.0042 5.1782 14.0144 5.3315 13.9803 5.48821C13.9463 5.64492 13.8611 5.78459 13.7248 5.90723L10.7201 8.50314L11.6195 12.3664C11.6604 12.5435 11.6468 12.7036 11.5786 12.8467C11.5105 12.9898 11.4151 13.109 11.2925 13.2044C11.1698 13.2998 11.0267 13.3543 10.8632 13.3679C10.6997 13.3815 10.543 13.3407 10.3931 13.2453L7 11.2013Z" fill="#1C1B1F"/>
</g>
</svg>
